<svg width="156" height="30" viewBox="0 0 156 30" fill="none" xmlns="http://www.w3.org/2000/svg">
<path d="M2 0C1.17156 0 0.5 0.671576 0.5 1.5V13.5C0.5 14.3284 1.17156 15 2 15C1.17156 15 0.5 15.6716 0.5 16.5V28.5C0.5 29.3284 1.17156 30 2 30H14C14.8284 30 15.5 29.3284 15.5 28.5V16.5C15.5 23.9559 21.5442 30 29 30C29.8284 30 30.5 29.3284 30.5 28.5V16.5C30.5 15.6716 29.8284 15 29 15H17C24.4558 15 30.5 8.95584 30.5 1.5C30.5 0.671576 29.8284 0 29 0H17C16.1716 0 15.5 0.671576 15.5 1.5C15.5 0.671576 14.8284 0 14 0H2Z" fill="url(#paint0_linear_73_6729)"/>
<path d="M51.5391 5.9375V23H48.0234V5.9375H51.5391ZM61.7578 5.9375L54.9961 14.3633L51.0938 18.5586L50.4609 15.2305L53.0977 11.6211L57.4453 5.9375H61.7578ZM57.7617 23L52.7344 15.1133L55.3359 12.9336L61.9219 23H57.7617ZM76.9219 14.0703V14.8789C76.9219 16.1758 76.7461 17.3398 76.3945 18.3711C76.043 19.4023 75.5469 20.2812 74.9062 21.0078C74.2656 21.7266 73.5 22.2773 72.6094 22.6602C71.7266 23.043 70.7461 23.2344 69.668 23.2344C68.5977 23.2344 67.6172 23.043 66.7266 22.6602C65.8438 22.2773 65.0781 21.7266 64.4297 21.0078C63.7812 20.2812 63.2773 19.4023 62.918 18.3711C62.5664 17.3398 62.3906 16.1758 62.3906 14.8789V14.0703C62.3906 12.7656 62.5664 11.6016 62.918 10.5781C63.2695 9.54688 63.7656 8.66797 64.4062 7.94141C65.0547 7.21484 65.8203 6.66016 66.7031 6.27734C67.5938 5.89453 68.5742 5.70312 69.6445 5.70312C70.7227 5.70312 71.7031 5.89453 72.5859 6.27734C73.4766 6.66016 74.2422 7.21484 74.8828 7.94141C75.5312 8.66797 76.0312 9.54688 76.3828 10.5781C76.7422 11.6016 76.9219 12.7656 76.9219 14.0703ZM73.3711 14.8789V14.0469C73.3711 13.1406 73.2891 12.3438 73.125 11.6562C72.9609 10.9688 72.7188 10.3906 72.3984 9.92188C72.0781 9.45312 71.6875 9.10156 71.2266 8.86719C70.7656 8.625 70.2383 8.50391 69.6445 8.50391C69.0508 8.50391 68.5234 8.625 68.0625 8.86719C67.6094 9.10156 67.2227 9.45312 66.9023 9.92188C66.5898 10.3906 66.3516 10.9688 66.1875 11.6562C66.0234 12.3438 65.9414 13.1406 65.9414 14.0469V14.8789C65.9414 15.7773 66.0234 16.5742 66.1875 17.2695C66.3516 17.957 66.5938 18.5391 66.9141 19.0156C67.2344 19.4844 67.625 19.8398 68.0859 20.082C68.5469 20.3242 69.0742 20.4453 69.668 20.4453C70.2617 20.4453 70.7891 20.3242 71.25 20.082C71.7109 19.8398 72.0977 19.4844 72.4102 19.0156C72.7227 18.5391 72.9609 17.957 73.125 17.2695C73.2891 16.5742 73.3711 15.7773 73.3711 14.8789ZM93.3398 5.9375V23H89.8242L82.9688 11.5625V23H79.4531V5.9375H82.9688L89.8359 17.3867V5.9375H93.3398ZM103.547 8.85547L98.9062 23H95.168L101.508 5.9375H103.887L103.547 8.85547ZM107.402 23L102.75 8.85547L102.375 5.9375H104.777L111.152 23H107.402ZM107.191 16.6484V19.4023H98.1797V16.6484H107.191ZM118.91 5.9375V23H115.406V5.9375H118.91ZM124.16 5.9375V8.69141H110.238V5.9375H124.16ZM135.586 5.9375H139.09V17.2109C139.09 18.5234 138.809 19.6289 138.246 20.5273C137.691 21.4258 136.922 22.1016 135.938 22.5547C134.961 23.0078 133.836 23.2344 132.562 23.2344C131.289 23.2344 130.156 23.0078 129.164 22.5547C128.18 22.1016 127.406 21.4258 126.844 20.5273C126.289 19.6289 126.012 18.5234 126.012 17.2109V5.9375H129.527V17.2109C129.527 17.9766 129.648 18.6016 129.891 19.0859C130.133 19.5703 130.48 19.9258 130.934 20.1523C131.395 20.3789 131.938 20.4922 132.562 20.4922C133.203 20.4922 133.746 20.3789 134.191 20.1523C134.645 19.9258 134.988 19.5703 135.223 19.0859C135.465 18.6016 135.586 17.9766 135.586 17.2109V5.9375ZM150.867 18.5352C150.867 18.2305 150.82 17.957 150.727 17.7148C150.641 17.4648 150.477 17.2383 150.234 17.0352C149.992 16.8242 149.652 16.6172 149.215 16.4141C148.777 16.2109 148.211 16 147.516 15.7812C146.742 15.5312 146.008 15.25 145.312 14.9375C144.625 14.625 144.016 14.2617 143.484 13.8477C142.961 13.4258 142.547 12.9375 142.242 12.3828C141.945 11.8281 141.797 11.1836 141.797 10.4492C141.797 9.73828 141.953 9.09375 142.266 8.51562C142.578 7.92969 143.016 7.42969 143.578 7.01562C144.141 6.59375 144.805 6.26953 145.57 6.04297C146.344 5.81641 147.191 5.70312 148.113 5.70312C149.371 5.70312 150.469 5.92969 151.406 6.38281C152.344 6.83594 153.07 7.45703 153.586 8.24609C154.109 9.03516 154.371 9.9375 154.371 10.9531H150.879C150.879 10.4531 150.773 10.0156 150.562 9.64062C150.359 9.25781 150.047 8.95703 149.625 8.73828C149.211 8.51953 148.688 8.41016 148.055 8.41016C147.445 8.41016 146.938 8.50391 146.531 8.69141C146.125 8.87109 145.82 9.11719 145.617 9.42969C145.414 9.73438 145.312 10.0781 145.312 10.4609C145.312 10.75 145.383 11.0117 145.523 11.2461C145.672 11.4805 145.891 11.6992 146.18 11.9023C146.469 12.1055 146.824 12.2969 147.246 12.4766C147.668 12.6562 148.156 12.832 148.711 13.0039C149.641 13.2852 150.457 13.6016 151.16 13.9531C151.871 14.3047 152.465 14.6992 152.941 15.1367C153.418 15.5742 153.777 16.0703 154.02 16.625C154.262 17.1797 154.383 17.8086 154.383 18.5117C154.383 19.2539 154.238 19.918 153.949 20.5039C153.66 21.0898 153.242 21.5859 152.695 21.9922C152.148 22.3984 151.496 22.707 150.738 22.918C149.98 23.1289 149.133 23.2344 148.195 23.2344C147.352 23.2344 146.52 23.125 145.699 22.9062C144.879 22.6797 144.133 22.3398 143.461 21.8867C142.797 21.4336 142.266 20.8555 141.867 20.1523C141.469 19.4492 141.27 18.6172 141.27 17.6562H144.797C144.797 18.1875 144.879 18.6367 145.043 19.0039C145.207 19.3711 145.438 19.668 145.734 19.8945C146.039 20.1211 146.398 20.2852 146.812 20.3867C147.234 20.4883 147.695 20.5391 148.195 20.5391C148.805 20.5391 149.305 20.4531 149.695 20.2812C150.094 20.1094 150.387 19.8711 150.574 19.5664C150.77 19.2617 150.867 18.918 150.867 18.5352Z" fill="#D0D2D6"/>
<defs>
<linearGradient id="paint0_linear_73_6729" x1="0.5" y1="30" x2="30.5" y2="0" gradientUnits="userSpaceOnUse">
<stop stop-color="#2423A0"/>
<stop offset="1" stop-color="#BAA9FF"/>
</linearGradient>
</defs>
</svg>
