<svg width="10" height="10" viewBox="0 0 10 10" fill="none" xmlns="http://www.w3.org/2000/svg">
<path d="M5 0C2.24286 0 0 2.24291 0 5C0 7.75709 2.24291 10 5 10C7.75709 10 10 7.75709 10 5C10 2.25714 7.75709 0 5 0ZM5 9.15714C2.71423 9.15714 0.857143 7.29997 0.857143 5.01429C0.857143 2.72852 2.71431 0.871428 5 0.871428C7.28577 0.871428 9.14286 2.7286 9.14286 5.01429C9.14286 7.29997 7.28579 9.15714 5 9.15714Z" fill="#D68232"/>
<path d="M4.99989 4.27145C4.75704 4.27145 4.57129 4.4572 4.57129 4.70005V6.88576C4.57129 7.12861 4.75703 7.31436 4.99989 7.31436C5.24274 7.31436 5.42848 7.12862 5.42848 6.88576V4.70005C5.42848 4.45711 5.24274 4.27145 4.99989 4.27145Z" fill="#D68232"/>
<path d="M4.99989 2.69994C4.88559 2.69994 4.77129 2.74279 4.69984 2.82849C4.61414 2.91419 4.57129 3.01424 4.57129 3.12854C4.57129 3.15714 4.57129 3.18564 4.58554 3.21424C4.58554 3.24284 4.59979 3.27134 4.61414 3.29994C4.62839 3.32854 4.64274 3.34279 4.65699 3.37139C4.67124 3.39999 4.68559 3.41424 4.71409 3.44284C4.87124 3.59999 5.15692 3.59999 5.31409 3.44284C5.32834 3.42859 5.35694 3.39999 5.37119 3.37139C5.38544 3.34279 5.39979 3.32854 5.41404 3.29994C5.42829 3.27134 5.42829 3.24284 5.44264 3.21424C5.44264 3.18564 5.45689 3.15714 5.45689 3.12854C5.45689 3.01424 5.41404 2.89995 5.32834 2.82849C5.22849 2.74279 5.11419 2.69994 4.99989 2.69994H4.99989Z" fill="#D68232"/>
</svg>
