<svg width="10" height="12" viewBox="0 0 10 12" fill="none" xmlns="http://www.w3.org/2000/svg">
<path d="M8.63647 11.0768H1.3637C1.10915 11.0768 0.90915 10.8738 0.90915 10.6153V1.38451C0.90915 1.1261 1.10914 0.923046 1.3637 0.923046H5.45466V2.03071H2.27285C2.12743 2.03071 2.00015 2.15995 2.00015 2.30761V9.69232C2.00015 9.83998 2.12743 9.96922 2.27285 9.96922H7.72732C7.87274 9.96922 8.00002 9.83998 8.00002 9.69232V4.61525H9.0909V10.6153C9.09098 10.8737 8.89103 11.0768 8.63647 11.0768Z" fill="#026132"/>
<path d="M2.54553 6.27685H3.81828V7.56918H2.54553V6.27685Z" fill="#026132"/>
<path d="M2.54545 9.4153V8.12296H3.81819V9.4153H2.54545Z" fill="#026132"/>
<path d="M5.63638 7.56918H4.36364V6.27685H5.63638V7.56918Z" fill="#026132"/>
<path d="M4.36366 9.4153V8.12296H5.63641V9.4153H4.36366Z" fill="#026132"/>
<path d="M6.18192 8.12313H7.45466V9.41547H6.18192V8.12313Z" fill="#026132"/>
<path d="M7.4546 7.56918H6.18185V6.27685H7.4546V7.56918Z" fill="#026132"/>
<path d="M7.45466 5.72313H6.18192V4.44931C6.36377 4.56005 6.58189 4.61546 6.81824 4.61546L7.45464 4.61538L7.45466 5.72313Z" fill="#026132"/>
<path d="M4.36375 5.72305V4.24615H5.63649V5.72305H4.36375Z" fill="#026132"/>
<path d="M2.54553 4.24606H3.81828V5.72296H2.54553V4.24606Z" fill="#026132"/>
<path fill-rule="evenodd" clip-rule="evenodd" d="M9.96348 3.95084C9.98162 3.98775 9.99983 4.02467 9.99983 4.06158L10 4.15378V10.6153C10 11.3723 9.38181 12 8.63634 12H1.36357C0.618191 12 0 11.3723 0 10.6154V1.38465C0 0.627707 0.618191 0 1.36357 0H5.9089H5.99982C6.03626 0.0184971 6.07261 0.0369133 6.12702 0.0553286L6.14524 0.0738274C6.1816 0.0922431 6.19981 0.11074 6.23617 0.147655L9.87255 3.84001C9.9089 3.85851 9.92704 3.89542 9.94526 3.93234C9.96348 3.93234 9.96348 3.95084 9.96348 3.95084ZM8.45441 3.69237H6.81805C6.56349 3.69237 6.36349 3.4893 6.36349 3.23082V1.56927L8.45441 3.69237ZM6.18192 4.44931C6.36377 4.56005 6.58189 4.61546 6.81824 4.61546L7.45464 4.61538L8.00002 4.61525H9.0909V10.6153C9.09098 10.8737 8.89103 11.0768 8.63647 11.0768H1.3637C1.10915 11.0768 0.90915 10.8738 0.90915 10.6153V1.38451C0.90915 1.1261 1.10914 0.923046 1.3637 0.923046H5.45466V2.03071V2.5V3.69237L5.63649 4.24615L6.18192 4.44931Z" fill="#026132"/>
</svg>
