<svg width="49" height="48" viewBox="0 0 49 48" fill="none" xmlns="http://www.w3.org/2000/svg">
<path d="M46.6175 26.6698C45.4546 26.6698 44.503 27.6214 44.503 28.7843V39.6743C44.503 41.4719 43.0228 43.0577 41.1197 43.0577H8.3442C6.54661 43.0577 4.96086 41.5774 4.96086 39.6743V28.7848C4.96086 27.6219 4.00927 26.6703 2.8464 26.6703C1.68352 26.6703 0.731934 27.6219 0.731934 28.7848V39.6748C0.731934 43.7981 4.11527 47.2871 8.3442 47.2871H41.1197C45.2429 47.2871 48.7319 43.9037 48.7319 39.6748V28.7848C48.7319 27.6214 47.7803 26.6698 46.6175 26.6698V26.6698Z" fill="#7367F0"/>
<path d="M23.357 33.0136C23.5683 33.2248 23.78 33.3309 24.0969 33.4365C24.3081 33.5422 24.6255 33.5422 24.8367 33.5422C25.1541 33.5422 25.3653 33.4365 25.5766 33.3309C25.7878 33.2253 25.9996 33.1197 26.2108 32.9079L37.1009 22.0179C37.9469 21.1719 37.9469 19.9034 37.1009 19.0575C36.2549 18.2115 34.9864 18.2115 34.1405 19.0575L26.9517 26.4585V2.88155C26.9517 1.71872 26.0001 0.76709 24.8373 0.76709C23.6744 0.76709 22.7228 1.71868 22.7228 2.88155V26.4585L15.4274 19.1631C14.5814 18.3172 13.313 18.3172 12.467 19.1631C11.621 20.0091 11.621 21.2776 12.467 22.1235L23.357 33.0136Z" fill="#7367F0"/>
</svg>
