<svg width="10" height="10" viewBox="0 0 10 10" fill="none" xmlns="http://www.w3.org/2000/svg">
<path d="M0.5 0C0.223853 0 0 0.223859 0 0.5V4.5C0 4.77614 0.223853 5 0.5 5C0.223853 5 0 5.22386 0 5.5V9.5C0 9.77614 0.223853 10 0.5 10H4.5C4.77615 10 5 9.77614 5 9.5V5.5C5 7.98528 7.01472 10 9.5 10C9.77615 10 10 9.77614 10 9.5V5.5C10 5.22386 9.77615 5 9.5 5H5.5C7.98528 5 10 2.98528 10 0.5C10 0.223859 9.77615 0 9.5 0H5.5C5.22385 0 5 0.223859 5 0.5C5 0.223859 4.77615 0 4.5 0H0.5Z" fill="#232A40"/>
</svg>
