<svg width="10" height="10" viewBox="0 0 10 10" fill="none" xmlns="http://www.w3.org/2000/svg">
<path d="M5.8263 4.99869L9.82632 0.997634C10.0579 0.765994 10.0579 0.397438 9.82632 0.176364C9.60522 -0.0552761 9.23686 -0.0552761 9.00526 0.165862L5.00525 4.16692L1.00523 0.165862C0.77365 -0.0552872 0.405265 -0.0552872 0.173685 0.165862C-0.0474062 0.397502 -0.0474062 0.765983 0.173685 0.997623L4.1737 4.99868L0.173685 8.99974C-0.057895 9.23138 -0.057895 9.59994 0.173685 9.82101C0.289479 9.94734 0.436844 10 0.584213 10C0.731578 10 0.878951 9.94734 0.994741 9.83152L4.99476 5.83046L8.99477 9.83152C9.11056 9.94734 9.25793 10 9.4053 10C9.55266 10 9.70004 9.94734 9.81583 9.83152C10.0474 9.59988 10.0474 9.23132 9.81583 9.01025L5.8263 4.99869Z" fill="white"/>
</svg>
