<svg width="8" height="4" viewBox="0 0 8 4" fill="none" xmlns="http://www.w3.org/2000/svg">
<path d="M4.00847 3.99991C4.18759 3.99868 4.3592 3.93802 4.48687 3.83073L7.79673 1.0064C7.9265 0.896155 7.99961 0.746514 8 0.590293C8.00038 0.434081 7.92804 0.284114 7.79894 0.173452C7.66975 0.0627168 7.49438 0.00032845 7.3113 6.34087e-07C7.12823 -0.000327182 6.95249 0.0614027 6.8228 0.171564L4.00006 2.58023L1.17733 0.171565C1.00263 0.0231505 0.748179 -0.0344754 0.510185 0.0204415C0.272091 0.0753584 0.0864292 0.234453 0.023138 0.437767C-0.0401606 0.64118 0.0285251 0.857886 0.203318 1.00639L3.51318 3.83073C3.64507 3.94163 3.82337 4.00262 4.00847 3.99991Z" fill="#D0D2D6"/>
</svg>
