<svg width="14" height="18" viewBox="0 0 14 18" fill="none" xmlns="http://www.w3.org/2000/svg">
<path d="M12.8709 2.1903H10.0709V1.12902C10.0709 0.49677 9.57415 0 8.9419 0H5.05806C4.42581 0 3.92904 0.49677 3.92904 1.12902V2.1903H1.12902C0.49677 2.1903 0 2.68707 0 3.31933V5.62257C0 6.25483 0.49677 6.7516 1.12902 6.7516H1.30969V15.4451C1.30969 16.3257 2.00964 17.0257 2.89028 17.0257H11.1096C11.9902 17.0257 12.6902 16.3257 12.6902 15.4451L12.6903 6.7516H12.871C13.5032 6.7516 14 6.25483 14 5.62257V3.31933C14 2.68707 13.4805 2.1903 12.871 2.1903H12.8709ZM5.28391 1.35487H8.71618L8.71602 2.1903H5.28391L5.28391 1.35487ZM1.35487 3.54517H12.6451V5.39685L1.35487 5.39669V3.54517ZM11.3354 15.4451C11.3354 15.5805 11.2452 15.6709 11.1096 15.6709L2.89027 15.6708C2.75482 15.6708 2.66441 15.5805 2.66441 15.4449L2.66456 6.75144H11.3355L11.3354 15.4451Z" fill="#EA5455"/>
</svg>
